<?xml version="1.0" encoding="utf-8"?>
<!-- Generator: Adobe Illustrator 24.0.1, SVG Export Plug-In . SVG Version: 6.00 Build 0)  -->
<svg version="1.1" id="Layer_1" xmlns="http://www.w3.org/2000/svg" xmlns:xlink="http://www.w3.org/1999/xlink" x="0px" y="0px"
	 viewBox="0 0 1276.6 458.5" style="enable-background:new 0 0 1276.6 458.5;" xml:space="preserve">
<rect style="fill:#FFFFFF;" width="1276.6" height="458.5"/>
<g>
	<g>
		<rect x="397.2" y="174.8" style="fill:#00AECA;" width="21" height="19.7"/>
	</g>
	<path style="fill:#383838;" d="M427.7,140.4v-15.8c0-27.7-22.5-50.2-50.2-50.2h-0.4c-27.7,0-50.2,22.5-50.2,50.2v163.7
		c0,6.5-5.3,11.7-11.7,11.7s-11.7-5.3-11.7-11.7v-58.1c0-27.9-22.7-50.6-50.6-50.6c-27.9,0-50.6,22.7-50.6,50.6v58.1
		c0,6.5-5.3,11.7-11.7,11.7s-11.8-5.3-11.8-11.7V178.6h8.3v-18.2h-56.8v18.2h8.3v109.7c0,28.7,23.3,52,52,52s52-23.3,52-52v-58.1
		c0-5.7,4.6-10.4,10.4-10.4c5.7,0,10.4,4.6,10.4,10.4v58.1c0,28.7,23.3,52,52,52s52-23.3,52-52V124.6c0-5.5,4.5-10,10-10h0.4
		c5.5,0,10,4.5,10,10v15.8h-8.2v18.2h56.8v-18.2H427.7z"/>
	<g>
		<path style="fill:#383838;" d="M524.7,393.3c-1.1,0-1.9-0.2-2.3-0.7c-0.4-0.4-0.6-1.1-0.6-2c0-0.8,0.2-1.5,0.6-2.3
			c0.4-0.7,1.1-1.1,2.3-1.1c1.1,0,1.9,0.4,2.3,1.1c0.4,0.7,0.6,1.5,0.6,2.3c0,0.9-0.2,1.6-0.6,2
			C526.5,393.1,525.8,393.3,524.7,393.3z M522,422.6v-26.1h5.3v26.1H522z"/>
		<path style="fill:#383838;" d="M551.2,423.4c-3.5,0-6.5-0.7-9.1-2.2c-2.6-1.4-4.6-3.5-6-6.3c-1.4-2.7-2.1-6.1-2-10.1
			c0-4,0.8-7.4,2.3-10.2c1.5-2.8,3.6-4.9,6.3-6.4c2.7-1.5,5.8-2.2,9.4-2.2c4.7,0,8.4,1.1,11.1,3.2c2.7,2.1,4.5,5.2,5.4,9.2l-5.1,0.7
			c-0.7-2.9-2.1-5-4.1-6.2c-2.1-1.3-4.5-1.9-7.2-1.9c-4.3,0-7.5,1.2-9.6,3.6c-2.1,2.4-3.1,5.7-3.2,9.8c0,4.4,1.2,7.8,3.5,10.2
			c2.3,2.4,5.6,3.6,9.8,3.6c2.9,0,5.4-0.7,7.5-2.2c2.1-1.5,3.4-3.7,4-6.8h-8.9v-4h14.1v17.3h-3.6l-1.2-7.1l-0.1,0
			c-0.4,1.1-1.2,2.3-2.2,3.5c-1,1.2-2.5,2.2-4.3,3.1C556,423,553.8,423.4,551.2,423.4z"/>
		<path style="fill:#383838;" d="M582.5,418.3h20.3v4.3h-25.5v-35.9h24.8v4.6h-19.6v10.9h15.3v4.4h-15.3V418.3z"/>
		<path style="fill:#383838;" d="M610.6,422.6v-35.9h9.2l10.1,33.5h0.1l9.9-33.5h9.2v35.9h-5.4l0.3-33.4h-0.1l-10.1,33.4h-7.8
			l-10-33.4h-0.1l0.3,33.4H610.6z"/>
		<path style="fill:#383838;" d="M674.8,422.6v-35.9h13.6c1.4,0,2.9,0.1,4.5,0.3c1.6,0.2,3.1,0.6,4.5,1.2c1.4,0.6,2.5,1.6,3.4,2.8
			s1.3,3,1.3,5.2c0,1.4-0.3,2.6-0.8,3.8c-0.5,1.2-1.5,2.1-2.9,2.8c-1.4,0.7-3.4,1.2-6,1.4c3,0,5.3,0.4,7,1.3
			c1.6,0.9,2.8,1.9,3.4,3.2c0.6,1.3,1,2.7,1,4.3c0,2.3-0.5,4-1.5,5.3c-1,1.3-2.2,2.2-3.8,2.8c-1.5,0.6-3.2,1-4.9,1.2
			c-1.7,0.2-3.3,0.3-4.9,0.3H674.8z M680,402h7.7c1.7,0,3.3-0.1,4.7-0.3c1.4-0.2,2.5-0.7,3.3-1.4s1.2-2,1.2-3.6c0-1.7-0.4-3-1.3-3.8
			c-0.8-0.8-2-1.3-3.4-1.5c-1.4-0.2-2.9-0.3-4.5-0.3H680V402z M680,418.3h8.4c1.8,0,3.5-0.1,5-0.4c1.5-0.2,2.7-0.8,3.6-1.6
			c0.9-0.8,1.4-2.1,1.4-3.9c0-1.8-0.5-3.2-1.4-4.1c-1-0.9-2.2-1.5-3.8-1.8s-3.3-0.4-5.2-0.4H680V418.3z"/>
		<path style="fill:#383838;" d="M726.5,423.4c-3.5,0-6.5-0.7-9.1-2.2s-4.6-3.5-6-6.3c-1.4-2.7-2.1-6.1-2-10.1c0-4,0.8-7.4,2.3-10.2
			c1.5-2.8,3.6-4.9,6.3-6.4c2.7-1.5,5.8-2.2,9.4-2.2c4.7,0,8.4,1.1,11.1,3.2c2.7,2.1,4.5,5.2,5.4,9.2l-5.1,0.7
			c-0.7-2.9-2.1-5-4.1-6.2s-4.5-1.9-7.2-1.9c-4.3,0-7.5,1.2-9.6,3.6c-2.1,2.4-3.1,5.7-3.2,9.8c0,4.4,1.2,7.8,3.5,10.2
			c2.3,2.4,5.6,3.6,9.8,3.6c2.9,0,5.4-0.7,7.5-2.2c2.1-1.5,3.4-3.7,4-6.8h-8.9v-4h14.1v17.3h-3.6l-1.2-7.1l-0.1,0
			c-0.4,1.1-1.2,2.3-2.2,3.5c-1,1.2-2.5,2.2-4.3,3.1C731.3,423,729.1,423.4,726.5,423.4z"/>
		<path style="fill:#383838;" d="M767.7,423.4c-4.9,0-8.7-1.4-11.3-4.2s-3.9-6.7-3.9-11.9v-20.6h5.5v20.5c0,2.8,0.4,5,1.3,6.6
			c0.9,1.6,2.1,2.8,3.5,3.5c1.5,0.7,3.1,1,4.8,1c1.9,0,3.6-0.3,5.1-1c1.5-0.7,2.6-1.8,3.4-3.4c0.8-1.6,1.2-3.9,1.2-6.7v-20.5h5.5
			v20.6c0,5.2-1.3,9.2-3.9,11.9C776.6,422,772.8,423.4,767.7,423.4z"/>
	</g>
	<path style="fill:none;" d="M778.2,293.5c0.3,10.2,8.7,18.4,18.9,18.4H836c10.4,0,18.9-8.5,18.9-18.9V253c0-0.3,0-0.6,0-0.9
		c-0.1-0.7-0.2-1.5-0.2-2.2c-1.4-9.1-8.9-15.8-18.3-15.8h-38.9c-10.5,0-19.4,8.7-19.4,18.9v39.9h0
		C778.2,293.1,778.2,293.3,778.2,293.5z"/>
	<path style="fill:none;" d="M634.6,262.9h60.5c8,0,14.4-6.5,14.4-14.4c0-8-8.5-14.4-14-14.4h-46.2c-8.1,0-14.9,6.6-14.9,14.4v8.2
		h0.1V262.9z"/>
	<path style="fill:none;" d="M535.5,234.1h-38.9c-10.5,0-19.4,8.7-19.4,18.9v3.7v36.3c0,10.4,8.5,18.9,18.9,18.9h38.9
		c10.4,0,18.9-8.5,18.9-18.9v-36.3V253C554,242.4,545.9,234.1,535.5,234.1z"/>
	<path style="fill:#383838;" d="M756.9,292.9c0,10.4-8.6,18.9-19.1,18.9h-2.7v0l-86.2-0.1c-8,0-14.4-6.5-14.4-14.4v-1.7
		c0.1-0.9,0.1-1.8,0.1-2.7v-8.8h60.5c19.7,0,35.7-16,35.7-35.7c0-20.4-18.6-35.7-35.2-35.7h-46.2c-19.9,0-36.1,16-36.1,35.7v46.4
		c-1,9.5-9.1,17-18.8,17h-0.3c-10.4,0-18.9-8.5-18.9-18.9v-36.3V253c0-22.1-17.8-40.2-39.7-40.2h-38.9c-22.4,0-40.6,18-40.6,40.2
		v3.7v9.4l0,0l-0.1,28.9c-1,9.5-9.1,16.9-18.8,16.9h-0.3c-10.4,0-18.9-8.5-18.9-18.9l0.4-80.4l-21.2-0.1l-0.4,80.5
		c0,22.1,18,40.2,40.2,40.2h0.3c6.8,0,13.1-1.7,18.7-4.7l-0.2,95.8l21.2,0.1l0.2-96.1c5.7,3.1,12.2,4.9,19.1,4.9h38.9
		c11.7,0,22.2-5,29.5-13c7.3,8,17.9,13,29.5,13h0.3c11,0,21-4.5,28.3-11.7c6.5,7.1,15.8,11.5,26.2,11.5l86.2,0.1v0h2.7
		c11.8,0,22.4-5,29.8-13C761,312.9,757,303.4,756.9,292.9L756.9,292.9z M634.5,248.5c0-7.8,6.8-14.4,14.9-14.4h46.2
		c5.5,0,14,6.5,14,14.4c0,8-6.5,14.4-14.4,14.4h-60.5v-6.3h-0.1V248.5z M554,256.7v36.3c0,10.4-8.5,18.9-18.9,18.9h-38.9
		c-10.4,0-18.9-8.5-18.9-18.9v-36.3V253c0-10.3,8.9-18.9,19.4-18.9h38.9c10.4,0,18.5,8.3,18.5,18.9V256.7z"/>
	<path style="fill:#383838;" d="M778.2,292.9L778.2,292.9c0,0.2,0,0.4,0,0.6C778.2,293.3,778.2,293.1,778.2,292.9z"/>
	<path style="fill:#00AECA;" d="M1126.4,280.6v10.8c0,11.7-9.5,21.3-21.3,21.3c-11.7,0-21.3-9.5-21.3-21.3V244l0.2-31.1l-0.2,0V188
		h17.7v-18.2h-17.7v-32h-21.2v32h-17.4V188h17.4v55.9l-0.3,49c0,10.4-8.5,18.9-18.9,18.9h-0.3c-10.4,0-18.9-8.5-18.9-18.9l0.4-80.1
		l-21.2-0.1v0l-0.2,0l-0.4,80.2c0,10.4-8.5,18.9-18.9,18.9H945c-10.4,0-18.9-8.5-18.9-18.9l0.2-42.1c0.1-1,0.2-2.1,0.2-3.1l0-0.3
		h-0.2l0.1-34.6l-21.2-0.1l-0.2,36.8c-1,7.1-7.1,12.5-14.4,12.5h-0.2c-7.2,0-13.2-5.3-14.4-12.2c0-0.7-0.1-1.3-0.2-1.9
		c0-0.2,0-0.3,0-0.5v-1.1h-0.2c-3.1-19-19.5-33.6-39.2-33.6h-38.9c-22.4,0-40.6,18-40.6,40.2v39.9c0,10.5,4,20,10.6,27.2
		c7.3,8,17.9,13,29.5,13H836c22.1,0,40.2-18,40.2-40.2v-12.6c4.4,1.9,9.2,3,14.2,3h0.2c5.1,0,9.9-1.1,14.3-3l-0.1,12.6
		c0,22.1,18,40.2,40.2,40.2h38.9c11.7,0,22.3-5.1,29.7-13.1c7.3,8.1,17.9,13.1,29.7,13.1h0.3c11.9,0,22.6-5.2,30-13.5
		c7.8,8.7,19.1,14.2,31.7,14.2c23.4,0,42.5-19,42.5-42.5v-10.8H1126.4z M855,292.9c0,10.4-8.5,18.9-18.9,18.9h-38.9
		c-10.3,0-18.6-8.2-18.9-18.4c0-0.2,0-0.4,0-0.6V253c0-10.3,8.9-18.9,19.4-18.9h38.9c9.3,0,16.8,6.8,18.3,15.8
		c0,0.7,0.1,1.5,0.2,2.2c0,0.3,0,0.6,0,0.9V292.9z"/>
	<g>
		<path style="fill:#383838;" d="M159.4,69.7c-24.3-27.4-56.5,7.6-56.5,7.6s48.7,27.2,45.7,65h0.4l0.2-0.3c2-3.2,4-6.5,5.4-10.2
			c1.5-3.7,2.1-5,2.8-9.1c0.1-0.3,0.6-3.2,0.7-3.5l-0.3-24.7v0v0c2.4,3.7,4.5,7.8,6.1,12.1c1.7,4.3,3,8.7,3.9,13.4
			c0.9,4.6,1.4,9.5,1.4,14.4c0,2.7-0.2,5.3-0.5,8h0.2c35.9-27.1,43.8-72.6,43.8-72.6S180.4,93.5,159.4,69.7z"/>
	</g>
</g>
</svg>
